# xmcd
#
# Track frame offsets:
#	150
#	11781
#	24363
#	35207
#	46414
#	57490
#	69815
#	81572
#	92718
#	103382
#	114582
#	125457
#	137773
#	150379
#	163469
#	176058
#	186890
#	198857
#	210783
#	221985
#	234008
#	246591
#
# Disc length: 3438 seconds
#
# Revision: 0
# Processed by: cddbd v1.4PL0 Copyright (c) Steve Scherf et al.
# Submitted via: EasyCDDAExtractor 4.6.9.1
#
DISCID=400d6c16
DTITLE=Hank Penny - And His Radio Cowboys (from 78s) Disc.1
DYEAR=1900
DGENRE=Country
TTITLE0=Back Up A Little Bit 1938
TTITLE1=They're Al Just The Same To Me 1938
TTITLE2=Sweet Talkin' Mama 1938
TTITLE3=Famin' Mamie 1938
TTITLE4=Cowboy's Swing 1938
TTITLE5=Blue Melody 1938
TTITLE6=She's Just That Kind 1938
TTITLE7=Mama's Getting Young 1938
TTITLE8=Cheatin' On Your Baby 1938
TTITLE9=Hesitation Blues 1938
TTITLE10=I've Got The Right Key 1938
TTITLE11=Hot Time Mama 1939
TTITLE12=Red Hot Papa 1939
TTITLE13=I want My Rib 1939
TTITLE14=Chill Tonic 1939
TTITLE15=All Day And All Night Long 1939
TTITLE16=Take It Slow And Easy 1939
TTITLE17=The Last Goodbye 1939
TTITLE18=Back Eyed Susie 1939
TTITLE19=You're So Different 1939
TTITLE20=Tonight You Belong To me 1939
TTITLE21=I Told Them All About You 1939
EXTD=
EXTT0=
EXTT1=
EXTT2=
EXTT3=
EXTT4=
EXTT5=
EXTT6=
EXTT7=
EXTT8=
EXTT9=
EXTT10=
EXTT11=
EXTT12=
EXTT13=
EXTT14=
EXTT15=
EXTT16=
EXTT17=
EXTT18=
EXTT19=
EXTT20=
EXTT21=
PLAYORDER=
